<svg width="16" height="16" viewBox="0 0 16 16" fill="none" xmlns="http://www.w3.org/2000/svg">
<path d="M8.00001 11.6667H8.00668M5.46668 14.6667H10.5333C11.2801 14.6667 11.6534 14.6667 11.9387 14.5214C12.1895 14.3936 12.3935 14.1896 12.5214 13.9387C12.6667 13.6535 12.6667 13.2801 12.6667 12.5334V3.46671C12.6667 2.71997 12.6667 2.3466 12.5214 2.06139C12.3935 1.8105 12.1895 1.60653 11.9387 1.4787C11.6534 1.33337 11.2801 1.33337 10.5333 1.33337H5.46668C4.71994 1.33337 4.34657 1.33337 4.06136 1.4787C3.81047 1.60653 3.6065 1.8105 3.47867 2.06139C3.33334 2.3466 3.33334 2.71997 3.33334 3.46671V12.5334C3.33334 13.2801 3.33334 13.6535 3.47867 13.9387C3.6065 14.1896 3.81047 14.3936 4.06136 14.5214C4.34657 14.6667 4.71994 14.6667 5.46668 14.6667ZM8.33334 11.6667C8.33334 11.8508 8.18411 12 8.00001 12C7.81592 12 7.66668 11.8508 7.66668 11.6667C7.66668 11.4826 7.81592 11.3334 8.00001 11.3334C8.18411 11.3334 8.33334 11.4826 8.33334 11.6667Z" stroke="#20013A" stroke-width="2" stroke-linecap="round" stroke-linejoin="round"/>
</svg>
