<svg width="40" height="40" viewBox="0 0 40 40" fill="none" xmlns="http://www.w3.org/2000/svg">
<path d="M0 20C0 8.95431 8.95431 0 20 0C31.0457 0 40 8.95431 40 20C40 31.0457 31.0457 40 20 40C8.95431 40 0 31.0457 0 20Z" fill="#E9E6EB"/>
<path d="M20 32C26.6274 32 32 26.6274 32 20C32 13.3726 26.6274 8 20 8C13.3726 8 8 13.3726 8 20C8 26.6274 13.3726 32 20 32Z" fill="#F7931A"/>
<path d="M25.3917 18.515C25.6272 16.943 24.4295 16.0977 22.793 15.5338L23.324 13.4037L22.028 13.0813L21.5105 15.155C21.17 15.0695 20.8205 14.99 20.4717 14.9105L20.993 12.8233L19.697 12.5L19.166 14.6292C18.884 14.5647 18.6065 14.5018 18.338 14.4343L18.3395 14.4275L16.5515 13.9812L16.2065 15.3658C16.2065 15.3658 17.1687 15.5863 17.1485 15.5998C17.6735 15.731 17.768 16.0782 17.7522 16.3542L17.1477 18.7805C17.1837 18.7895 17.2302 18.803 17.2827 18.8232L17.1455 18.7895L16.298 22.1885C16.2335 22.3475 16.0707 22.5867 15.7032 22.496C15.7167 22.5147 14.7612 22.2612 14.7612 22.2612L14.1177 23.7448L15.8052 24.1655C16.1187 24.2443 16.4262 24.3267 16.7285 24.404L16.1922 26.558L17.4875 26.8805L18.0185 24.7505C18.3725 24.8457 18.716 24.9342 19.052 25.0182L18.5225 27.1392L19.8185 27.4618L20.3547 25.3123C22.5657 25.7308 24.2277 25.562 24.9275 23.5625C25.4915 21.953 24.8997 21.0238 23.7365 20.4185C24.584 20.2235 25.2215 19.6663 25.3917 18.515ZM22.4292 22.6685C22.0295 24.2788 19.3182 23.408 18.4392 23.1898L19.1517 20.336C20.0307 20.5557 22.8485 20.99 22.4292 22.6685ZM22.8305 18.4918C22.4652 19.9565 20.2092 19.2118 19.478 19.0295L20.123 16.442C20.8542 16.6242 23.2115 16.964 22.8305 18.4918Z" fill="white"/>
</svg>
