<svg width="12" height="16" viewBox="0 0 12 16" fill="none" xmlns="http://www.w3.org/2000/svg">
<path d="M11.3917 6.515C11.6272 4.943 10.4295 4.09775 8.79296 3.53375L9.32396 1.40375L8.02796 1.08125L7.51046 3.155C7.16996 3.0695 6.82046 2.99 6.47171 2.9105L6.99296 0.82325L5.69696 0.5L5.16596 2.62925C4.88396 2.56475 4.60646 2.50175 4.33796 2.43425L4.33946 2.4275L2.55146 1.98125L2.20646 3.36575C2.20646 3.36575 3.16871 3.58625 3.14846 3.59975C3.67346 3.731 3.76796 4.07825 3.75221 4.35425L3.14771 6.7805C3.18371 6.7895 3.23021 6.803 3.28271 6.82325L3.14546 6.7895L2.29796 10.1885C2.23346 10.3475 2.07071 10.5867 1.70321 10.496C1.71671 10.5147 0.761207 10.2612 0.761207 10.2612L0.117706 11.7448L1.80521 12.1655C2.11871 12.2443 2.42621 12.3267 2.72846 12.404L2.19221 14.558L3.48746 14.8805L4.01846 12.7505C4.37246 12.8457 4.71596 12.9342 5.05196 13.0182L4.52246 15.1392L5.81846 15.4618L6.35471 13.3123C8.56571 13.7308 10.2277 13.562 10.9275 11.5625C11.4915 9.953 10.8997 9.02375 9.73646 8.4185C10.584 8.2235 11.2215 7.66625 11.3917 6.515ZM8.42921 10.6685C8.02946 12.2788 5.31821 11.408 4.43921 11.1898L5.15171 8.336C6.03071 8.55575 8.84846 8.99 8.42921 10.6685ZM8.83046 6.49175C8.46521 7.9565 6.20921 7.21175 5.47796 7.0295L6.12296 4.442C6.85421 4.62425 9.21146 4.964 8.83046 6.49175Z" fill="white"/>
</svg>
