<svg width="32" height="32" viewBox="0 0 32 32" fill="none" xmlns="http://www.w3.org/2000/svg">
<path d="M0 16C0 7.16344 7.16344 0 16 0C24.8366 0 32 7.16344 32 16C32 24.8366 24.8366 32 16 32C7.16344 32 0 24.8366 0 16Z" fill="#E9E6EB"/>
<path d="M9.3335 14.6668H22.6668V13.4668C22.6668 12.7201 22.6668 12.3467 22.5215 12.0615C22.3937 11.8106 22.1897 11.6067 21.9388 11.4788C21.6536 11.3335 21.2802 11.3335 20.5335 11.3335H11.4668C10.7201 11.3335 10.3467 11.3335 10.0615 11.4788C9.81063 11.6067 9.60665 11.8106 9.47882 12.0615C9.3335 12.3467 9.3335 12.7201 9.3335 13.4668V18.5335C9.3335 19.2802 9.3335 19.6536 9.47882 19.9388C9.60665 20.1897 9.81063 20.3937 10.0615 20.5215C10.3467 20.6668 10.7201 20.6668 11.4668 20.6668H15.3335M17.6668 22.0002L19.0168 21.7302C19.1345 21.7066 19.1934 21.6949 19.2483 21.6733C19.297 21.6542 19.3433 21.6294 19.3862 21.5995C19.4345 21.5658 19.477 21.5233 19.5619 21.4385L22.3335 18.6668C22.7017 18.2986 22.7017 17.7017 22.3335 17.3335C21.9653 16.9653 21.3684 16.9653 21.0002 17.3335L18.2285 20.1051C18.1436 20.19 18.1012 20.2325 18.0675 20.2808C18.0375 20.3237 18.0128 20.37 17.9937 20.4187C17.9721 20.4736 17.9604 20.5325 17.9368 20.6502L17.6668 22.0002Z" stroke="#454545" stroke-width="2" stroke-linecap="round" stroke-linejoin="round"/>
</svg>
