<svg width="36" height="36" viewBox="0 0 36 36" fill="none" xmlns="http://www.w3.org/2000/svg">
<path d="M0 18C0 8.05888 8.05888 0 18 0C27.9411 0 36 8.05888 36 18C36 27.9411 27.9411 36 18 36C8.05888 36 0 27.9411 0 18Z" fill="#E9E6EB"/>
<path d="M17.1667 11.3333H14.5C13.0999 11.3333 12.3998 11.3333 11.865 11.6058C11.3946 11.8455 11.0122 12.228 10.7725 12.6984C10.5 13.2331 10.5 13.9332 10.5 15.3333V19.6667C10.5 20.4416 10.5 20.8291 10.5852 21.147C10.8164 22.0098 11.4902 22.6836 12.353 22.9148C12.6709 23 13.0584 23 13.8333 23V24.9463C13.8333 25.3903 13.8333 25.6123 13.9244 25.7263C14.0035 25.8255 14.1236 25.8832 14.2504 25.8831C14.3964 25.8829 14.5697 25.7442 14.9165 25.4668L16.9043 23.8765C17.3104 23.5517 17.5135 23.3892 17.7396 23.2737C17.9402 23.1712 18.1537 23.0963 18.3743 23.051C18.6231 23 18.8831 23 19.4031 23H20.6667C22.0668 23 22.7669 23 23.3016 22.7275C23.772 22.4878 24.1545 22.1054 24.3942 21.635C24.6667 21.1002 24.6667 20.4001 24.6667 19V18.8333M24.7678 11.2322C25.7441 12.2085 25.7441 13.7915 24.7678 14.7678C23.7915 15.7441 22.2085 15.7441 21.2322 14.7678C20.2559 13.7915 20.2559 12.2085 21.2322 11.2322C22.2085 10.2559 23.7915 10.2559 24.7678 11.2322Z" stroke="#454545" stroke-width="2" stroke-linecap="round" stroke-linejoin="round"/>
</svg>
