<svg width="16" height="16" viewBox="0 0 16 16" fill="none" xmlns="http://www.w3.org/2000/svg">
<g clip-path="url(#clip0_64_2156)">
<path d="M8.00001 1.33337C10 2.66671 10.6152 5.52806 10.6667 8.00004C10.6152 10.472 10 13.3334 8.00001 14.6667M8.00001 1.33337C6.00001 2.66671 5.38484 5.52806 5.33334 8.00004C5.38484 10.472 6.00001 13.3334 8.00001 14.6667M8.00001 1.33337C4.31811 1.33337 1.33334 4.31814 1.33334 8.00004M8.00001 1.33337C11.6819 1.33337 14.6667 4.31814 14.6667 8.00004M8.00001 14.6667C11.6819 14.6667 14.6667 11.6819 14.6667 8.00004M8.00001 14.6667C4.31811 14.6667 1.33334 11.6819 1.33334 8.00004M14.6667 8.00004C13.3333 10 10.472 10.6152 8.00001 10.6667C5.52803 10.6152 2.66668 10 1.33334 8.00004M14.6667 8.00004C13.3333 6.00004 10.472 5.38487 8.00001 5.33337C5.52803 5.38487 2.66668 6.00004 1.33334 8.00004" stroke="#20013A" stroke-width="2" stroke-linecap="round" stroke-linejoin="round"/>
</g>
<defs>
<clipPath id="clip0_64_2156">
<rect width="16" height="16" fill="white"/>
</clipPath>
</defs>
</svg>
