<svg width="32" height="32" viewBox="0 0 32 32" fill="none" xmlns="http://www.w3.org/2000/svg">
<path d="M0 16C0 7.16344 7.16344 0 16 0C24.8366 0 32 7.16344 32 16C32 24.8366 24.8366 32 16 32C7.16344 32 0 24.8366 0 16Z" fill="#E9E6EB"/>
<path d="M13.9998 15L15.3332 16.3333L18.3332 13.3333M21.3332 22V13.2C21.3332 12.0799 21.3332 11.5198 21.1152 11.092C20.9234 10.7157 20.6175 10.4097 20.2412 10.218C19.8133 10 19.2533 10 18.1332 10H13.8665C12.7464 10 12.1863 10 11.7585 10.218C11.3822 10.4097 11.0762 10.7157 10.8845 11.092C10.6665 11.5198 10.6665 12.0799 10.6665 13.2V22L12.4998 20.6667L14.1665 22L15.9998 20.6667L17.8332 22L19.4998 20.6667L21.3332 22Z" stroke="#454545" stroke-width="2" stroke-linecap="round" stroke-linejoin="round"/>
</svg>
