<svg width="36" height="36" viewBox="0 0 36 36" fill="none" xmlns="http://www.w3.org/2000/svg">
<path d="M0 18C0 8.05888 8.05888 0 18 0C27.9411 0 36 8.05888 36 18C36 27.9411 27.9411 36 18 36C8.05888 36 0 27.9411 0 18Z" fill="#E9E6EB"/>
<path d="M25.9166 22.9997L20.381 17.9997M15.6191 17.9997L10.0834 22.9997M9.66667 13.833L16.4708 18.5959C17.0217 18.9816 17.2972 19.1744 17.5969 19.2491C17.8616 19.3151 18.1384 19.3151 18.4031 19.2491C18.7028 19.1744 18.9783 18.9816 19.5292 18.5959L26.3333 13.833M13.6667 24.6663H22.3333C23.7335 24.6663 24.4335 24.6663 24.9683 24.3939C25.4387 24.1542 25.8212 23.7717 26.0609 23.3013C26.3333 22.7665 26.3333 22.0665 26.3333 20.6663V15.333C26.3333 13.9329 26.3333 13.2328 26.0609 12.698C25.8212 12.2276 25.4387 11.8452 24.9683 11.6055C24.4335 11.333 23.7335 11.333 22.3333 11.333H13.6667C12.2665 11.333 11.5665 11.333 11.0317 11.6055C10.5613 11.8452 10.1788 12.2276 9.93916 12.698C9.66667 13.2328 9.66667 13.9329 9.66667 15.333V20.6663C9.66667 22.0665 9.66667 22.7665 9.93916 23.3013C10.1788 23.7717 10.5613 24.1542 11.0317 24.3939C11.5665 24.6663 12.2665 24.6663 13.6667 24.6663Z" stroke="#454545" stroke-width="2" stroke-linecap="round" stroke-linejoin="round"/>
</svg>
