<svg width="40" height="40" viewBox="0 0 40 40" fill="none" xmlns="http://www.w3.org/2000/svg">
<path d="M0 20C0 8.95431 8.95431 0 20 0C31.0457 0 40 8.95431 40 20C40 31.0457 31.0457 40 20 40C8.95431 40 0 31.0457 0 20Z" fill="#E9E6EB"/>
<path d="M20 32C26.6274 32 32 26.6274 32 20C32 13.3726 26.6274 8 20 8C13.3726 8 8 13.3726 8 20C8 26.6274 13.3726 32 20 32Z" fill="#627EEA"/>
<path d="M20.3735 11V17.6525L25.9963 20.165L20.3735 11Z" fill="white" fill-opacity="0.602"/>
<path d="M20.3735 11L14.75 20.165L20.3735 17.6525V11Z" fill="white"/>
<path d="M20.3735 24.4759V28.9962L26 21.2119L20.3735 24.4759Z" fill="white" fill-opacity="0.602"/>
<path d="M20.3735 28.9962V24.4752L14.75 21.2119L20.3735 28.9962Z" fill="white"/>
<path d="M20.3735 23.4296L25.9963 20.1648L20.3735 17.6538V23.4296Z" fill="white" fill-opacity="0.2"/>
<path d="M14.75 20.1648L20.3735 23.4296V17.6538L14.75 20.1648Z" fill="white" fill-opacity="0.602"/>
</svg>
