<svg width="36" height="36" viewBox="0 0 36 36" fill="none" xmlns="http://www.w3.org/2000/svg">
<path d="M0 18C0 8.05888 8.05888 0 18 0C27.9411 0 36 8.05888 36 18C36 27.9411 27.9411 36 18 36C8.05888 36 0 27.9411 0 18Z" fill="#E9E6EB"/>
<g clip-path="url(#clip0_110_2650)">
<path d="M10.5833 18.0003V18.0003C10.5834 19.8068 11.2427 21.5512 12.4375 22.9062C13.6323 24.2611 15.2805 25.1334 17.0728 25.3594L17.9167 25.4658V24.6153V19.667V18.917H17.1667H15.5C15.4779 18.917 15.4567 18.9082 15.4411 18.8926C15.4255 18.877 15.4167 18.8558 15.4167 18.8337C15.4167 18.8116 15.4255 18.7904 15.4411 18.7747C15.4567 18.7591 15.4779 18.7503 15.5 18.7503H17.1667H17.9167V18.0003V16.3337C17.9167 15.8695 18.101 15.4244 18.4292 15.0962C18.7574 14.768 19.2025 14.5837 19.6667 14.5837H20.0833C20.1054 14.5837 20.1266 14.5924 20.1423 14.6081C20.1579 14.6237 20.1667 14.6449 20.1667 14.667C20.1667 14.6891 20.1579 14.7103 20.1423 14.7259C20.1266 14.7415 20.1054 14.7503 20.0833 14.7503H19.6667C19.2467 14.7503 18.844 14.9171 18.5471 15.2141C18.2502 15.511 18.0833 15.9137 18.0833 16.3337V18.0003V18.7503H18.8333H20.5C20.5221 18.7503 20.5433 18.7591 20.5589 18.7747C20.5746 18.7904 20.5833 18.8116 20.5833 18.8337C20.5833 18.8558 20.5746 18.877 20.5589 18.8926C20.5433 18.9082 20.5221 18.917 20.5 18.917H18.8333H18.0833V19.667V24.6153V25.4657L18.9271 25.3594C20.3432 25.181 21.6777 24.5978 22.7706 23.6797C23.8634 22.7617 24.6681 21.5478 25.0882 20.1837C25.5083 18.8196 25.5258 17.3633 25.1387 15.9895C24.7516 14.6157 23.9764 13.3828 22.9059 12.4387C21.8355 11.4946 20.5154 10.8794 19.104 10.6669C17.6926 10.4545 16.2499 10.6538 14.949 11.2409C13.6481 11.8281 12.5442 12.7781 11.7698 13.9771C10.9954 15.176 10.5835 16.573 10.5833 18.0003ZM25.5833 18.0003C25.5833 22.1886 22.1883 25.5837 18 25.5837C13.8117 25.5837 10.4167 22.1886 10.4167 18.0003C10.4167 13.812 13.8117 10.417 18 10.417C22.1883 10.417 25.5833 13.812 25.5833 18.0003Z" fill="#454545" stroke="#454545" stroke-width="1.5"/>
</g>
<defs>
<clipPath id="clip0_110_2650">
<rect width="20" height="20" fill="white" transform="translate(8 8)"/>
</clipPath>
</defs>
</svg>
