<svg width="36" height="36" viewBox="0 0 36 36" fill="none" xmlns="http://www.w3.org/2000/svg">
<path d="M0 18C0 8.05888 8.05888 0 18 0C27.9411 0 36 8.05888 36 18C36 27.9411 27.9411 36 18 36C8.05888 36 0 27.9411 0 18Z" fill="#E9E6EB"/>
<path d="M16.3333 14.6685C16.4802 14.2511 16.77 13.8992 17.1514 13.675C17.5329 13.4508 17.9814 13.3688 18.4175 13.4436C18.8536 13.5184 19.2492 13.7452 19.5341 14.0837C19.8191 14.4222 19.975 14.8506 19.9744 15.2931C19.9744 16.5421 18.1008 17.1667 18.1008 17.1667M18.1249 19.6667H18.1333M13.8333 23V24.9463C13.8333 25.3903 13.8333 25.6123 13.9244 25.7263C14.0035 25.8255 14.1236 25.8832 14.2504 25.8831C14.3964 25.8829 14.5697 25.7442 14.9165 25.4668L16.9043 23.8765C17.3104 23.5517 17.5135 23.3892 17.7396 23.2737C17.9402 23.1712 18.1537 23.0963 18.3743 23.051C18.6231 23 18.8831 23 19.4031 23H21.5C22.9001 23 23.6002 23 24.135 22.7275C24.6054 22.4878 24.9878 22.1054 25.2275 21.635C25.5 21.1002 25.5 20.4001 25.5 19V14.5C25.5 13.0999 25.5 12.3998 25.2275 11.865C24.9878 11.3946 24.6054 11.0122 24.135 10.7725C23.6002 10.5 22.9001 10.5 21.5 10.5H14.5C13.0999 10.5 12.3998 10.5 11.865 10.7725C11.3946 11.0122 11.0122 11.3946 10.7725 11.865C10.5 12.3998 10.5 13.0999 10.5 14.5V19.6667C10.5 20.4416 10.5 20.8291 10.5852 21.147C10.8164 22.0098 11.4902 22.6836 12.353 22.9148C12.6709 23 13.0584 23 13.8333 23Z" stroke="#454545" stroke-width="2" stroke-linecap="round" stroke-linejoin="round"/>
</svg>
