<svg width="42" height="42" viewBox="0 0 42 42" fill="none" xmlns="http://www.w3.org/2000/svg">
<path d="M21 17.5V24.5M13.0325 5.9868C15.294 4.41881 18.0397 3.5 21 3.5C28.732 3.5 35 9.76801 35 17.5V19.6642M7.72856 13.0306C7.25608 14.4342 7 15.9372 7 17.5V24.5C7 30.861 11.2423 36.2312 17.0519 37.9356M34.4029 28.5578C33.1264 32.7799 29.9094 36.1595 25.7893 37.6594M25.0687 10.7561C23.8812 10.0382 22.4889 9.625 21 9.625C16.6508 9.625 13.125 13.1508 13.125 17.5V22.6625M28.875 19.32V24.5C28.875 28.8492 25.3492 32.375 21 32.375C19.5149 32.375 18.1257 31.9639 16.9402 31.2493" stroke="#454545" stroke-width="2" stroke-linecap="round" stroke-linejoin="round"/>
</svg>