<svg width="32" height="32" viewBox="0 0 32 32" fill="none" xmlns="http://www.w3.org/2000/svg">
<path d="M0 16C0 7.16344 7.16344 0 16 0C24.8366 0 32 7.16344 32 16C32 24.8366 24.8366 32 16 32C7.16344 32 0 24.8366 0 16Z" fill="#E9E6EB"/>
<path d="M19.0002 18.6668L22.3335 22.0002M22.3335 18.6668L19.0002 22.0002M22.6668 14.6668H9.3335M22.6668 16.0002V13.4668C22.6668 12.7201 22.6668 12.3467 22.5215 12.0615C22.3937 11.8106 22.1897 11.6067 21.9388 11.4788C21.6536 11.3335 21.2802 11.3335 20.5335 11.3335H11.4668C10.7201 11.3335 10.3467 11.3335 10.0615 11.4788C9.81063 11.6067 9.60665 11.8106 9.47882 12.0615C9.3335 12.3467 9.3335 12.7201 9.3335 13.4668V18.5335C9.3335 19.2802 9.3335 19.6536 9.47882 19.9388C9.60665 20.1897 9.81063 20.3937 10.0615 20.5215C10.3467 20.6668 10.7201 20.6668 11.4668 20.6668H16.0002" stroke="#454545" stroke-width="2" stroke-linecap="round" stroke-linejoin="round"/>
</svg>
