<svg width="32" height="32" viewBox="0 0 32 32" fill="none" xmlns="http://www.w3.org/2000/svg">
<path d="M0 16C0 7.16344 7.16344 0 16 0C24.8366 0 32 7.16344 32 16C32 24.8366 24.8366 32 16 32C7.16344 32 0 24.8366 0 16Z" fill="#E9E6EB"/>
<path d="M14.0002 18.6665L16.0002 16.6665M16.0002 16.6665L18.0002 18.6665M16.0002 16.6665V21.3332M22.6668 13.9998H9.3335M11.6668 19.9998H11.4668C10.7201 19.9998 10.3467 19.9998 10.0615 19.8545C9.81063 19.7267 9.60665 19.5227 9.47882 19.2718C9.3335 18.9866 9.3335 18.6132 9.3335 17.8665V12.7998C9.3335 12.0531 9.3335 11.6797 9.47882 11.3945C9.60665 11.1436 9.81063 10.9397 10.0615 10.8118C10.3467 10.6665 10.7201 10.6665 11.4668 10.6665H20.5335C21.2802 10.6665 21.6536 10.6665 21.9388 10.8118C22.1897 10.9397 22.3937 11.1436 22.5215 11.3945C22.6668 11.6797 22.6668 12.0531 22.6668 12.7998V17.8665C22.6668 18.6132 22.6668 18.9866 22.5215 19.2718C22.3937 19.5227 22.1897 19.7267 21.9388 19.8545C21.6536 19.9998 21.2802 19.9998 20.5335 19.9998H20.3335" stroke="#454545" stroke-width="2" stroke-linecap="round" stroke-linejoin="round"/>
</svg>
