<svg width="36" height="36" viewBox="0 0 36 36" fill="none" xmlns="http://www.w3.org/2000/svg">
<path d="M0 18C0 8.05888 8.05888 0 18 0C27.9411 0 36 8.05888 36 18C36 27.9411 27.9411 36 18 36C8.05888 36 0 27.9411 0 18Z" fill="#E9E6EB"/>
<path d="M18 21.3337C18.8841 21.3337 19.7319 20.9825 20.357 20.3573C20.9821 19.7322 21.3333 18.8844 21.3333 18.0003C21.3333 17.1163 20.9821 16.2684 20.357 15.6433C19.7319 15.0182 18.8841 14.667 18 14.667C17.116 14.667 16.2681 15.0182 15.643 15.6433C15.0179 16.2684 14.6667 17.1163 14.6667 18.0003C14.6667 18.8844 15.0179 19.7322 15.643 20.3573C16.2681 20.9825 17.116 21.3337 18 21.3337Z" stroke="#454545" stroke-width="2" stroke-linecap="round" stroke-linejoin="round"/>
<path d="M10.5 21.3333V14.6667C10.5 13.5616 10.939 12.5018 11.7204 11.7204C12.5018 10.939 13.5616 10.5 14.6667 10.5H21.3333C22.4384 10.5 23.4982 10.939 24.2796 11.7204C25.061 12.5018 25.5 13.5616 25.5 14.6667V21.3333C25.5 22.4384 25.061 23.4982 24.2796 24.2796C23.4982 25.061 22.4384 25.5 21.3333 25.5H14.6667C13.5616 25.5 12.5018 25.061 11.7204 24.2796C10.939 23.4982 10.5 22.4384 10.5 21.3333Z" stroke="#454545" stroke-width="2"/>
<path d="M22.5833 13.4252L22.5917 13.416" stroke="#454545" stroke-width="2" stroke-linecap="round" stroke-linejoin="round"/>
</svg>
