<svg width="36" height="36" viewBox="0 0 36 36" fill="none" xmlns="http://www.w3.org/2000/svg">
<path d="M0 18C0 8.05888 8.05888 0 18 0C27.9411 0 36 8.05888 36 18C36 27.9411 27.9411 36 18 36C8.05888 36 0 27.9411 0 18Z" fill="#E9E6EB"/>
<path d="M18.0001 25.5L17.9167 25.3749C17.3378 24.5066 17.0484 24.0725 16.666 23.7582C16.3275 23.4799 15.9374 23.2712 15.5181 23.1438C15.0445 23 14.5227 23 13.4791 23H12.3334C11.4 23 10.9333 23 10.5768 22.8183C10.2632 22.6586 10.0082 22.4036 9.8484 22.09C9.66675 21.7335 9.66675 21.2668 9.66675 20.3333V13.1667C9.66675 12.2332 9.66675 11.7665 9.8484 11.41C10.0082 11.0964 10.2632 10.8414 10.5768 10.6817C10.9333 10.5 11.4 10.5 12.3334 10.5H12.6667C14.5336 10.5 15.467 10.5 16.18 10.8633C16.8073 11.1829 17.3172 11.6928 17.6368 12.32C18.0001 13.0331 18.0001 13.9665 18.0001 15.8333M18.0001 25.5V15.8333M18.0001 25.5L18.0835 25.3749C18.6623 24.5066 18.9518 24.0725 19.3342 23.7582C19.6727 23.4799 20.0628 23.2712 20.4821 23.1438C20.9557 23 21.4775 23 22.5211 23H23.6667C24.6002 23 25.0669 23 25.4234 22.8183C25.737 22.6586 25.992 22.4036 26.1518 22.09C26.3334 21.7335 26.3334 21.2668 26.3334 20.3333V13.1667C26.3334 12.2332 26.3334 11.7665 26.1518 11.41C25.992 11.0964 25.737 10.8414 25.4234 10.6817C25.0669 10.5 24.6002 10.5 23.6667 10.5H23.3334C21.4666 10.5 20.5332 10.5 19.8201 10.8633C19.1929 11.1829 18.683 11.6928 18.3634 12.32C18.0001 13.0331 18.0001 13.9665 18.0001 15.8333" stroke="#454545" stroke-width="2" stroke-linecap="round" stroke-linejoin="round"/>
</svg>
