<svg width="36" height="36" viewBox="0 0 36 36" fill="none" xmlns="http://www.w3.org/2000/svg">
<path d="M0 18C0 8.05888 8.05888 0 18 0C27.9411 0 36 8.05888 36 18C36 27.9411 27.9411 36 18 36C8.05888 36 0 27.9411 0 18Z" fill="#E9E6EB"/>
<path d="M18.0001 24.6663H12.3334C11.4 24.6663 10.9333 24.6663 10.5768 24.4847C10.2632 24.3249 10.0082 24.0699 9.8484 23.7563C9.66675 23.3998 9.66675 22.9331 9.66675 21.9997V13.9997C9.66675 13.0663 9.66675 12.5995 9.8484 12.243C10.0082 11.9294 10.2632 11.6745 10.5768 11.5147C10.9333 11.333 11.4 11.333 12.3334 11.333H12.6667C14.5336 11.333 15.467 11.333 16.18 11.6963C16.8073 12.0159 17.3172 12.5258 17.6368 13.153C18.0001 13.8661 18.0001 14.7995 18.0001 16.6663M18.0001 24.6663V16.6663M18.0001 24.6663H23.6667C24.6002 24.6663 25.0669 24.6663 25.4234 24.4847C25.737 24.3249 25.992 24.0699 26.1518 23.7563C26.3334 23.3998 26.3334 22.9331 26.3334 21.9997V13.9997C26.3334 13.0663 26.3334 12.5995 26.1518 12.243C25.992 11.9294 25.737 11.6745 25.4234 11.5147C25.0669 11.333 24.6002 11.333 23.6667 11.333H23.3334C21.4666 11.333 20.5332 11.333 19.8201 11.6963C19.1929 12.0159 18.683 12.5258 18.3634 13.153C18.0001 13.8661 18.0001 14.7995 18.0001 16.6663" stroke="#454545" stroke-width="2" stroke-linecap="round" stroke-linejoin="round"/>
</svg>
