<svg width="40" height="40" viewBox="0 0 40 40" fill="none" xmlns="http://www.w3.org/2000/svg">
<path d="M0 20C0 8.95431 8.95431 0 20 0C31.0457 0 40 8.95431 40 20C40 31.0457 31.0457 40 20 40C8.95431 40 0 31.0457 0 20Z" fill="#E9E6EB"/>
<path d="M20 32C26.6274 32 32 26.6274 32 20C32 13.3726 26.6274 8 20 8C13.3726 8 8 13.3726 8 20C8 26.6274 13.3726 32 20 32Z" fill="#26A17B"/>
<path fill-rule="evenodd" clip-rule="evenodd" d="M21.4416 21.0373V21.0358C21.3591 21.0418 20.9338 21.0673 19.9851 21.0673C19.2276 21.0673 18.6943 21.0448 18.5068 21.0358V21.038C15.5908 20.9098 13.4143 20.402 13.4143 19.7945C13.4143 19.1878 15.5908 18.68 18.5068 18.5495V20.5325C18.6973 20.546 19.2433 20.5783 19.9978 20.5783C20.9031 20.5783 21.3568 20.5408 21.4416 20.5333V18.551C24.3516 18.6808 26.5228 19.1885 26.5228 19.7945C26.5228 20.402 24.3516 20.9083 21.4416 21.0373ZM21.4416 18.3448V16.5703H25.5021V13.8643H14.4463V16.5703H18.5068V18.344C15.2068 18.4955 12.7251 19.1495 12.7251 19.9325C12.7251 20.7155 15.2068 21.3688 18.5068 21.521V27.2075H21.4416V21.5195C24.7363 21.368 27.2121 20.7148 27.2121 19.9325C27.2121 19.1503 24.7363 18.497 21.4416 18.3448Z" fill="white"/>
</svg>
