<svg width="25" height="24" viewBox="0 0 25 24" fill="none" xmlns="http://www.w3.org/2000/svg">
<path d="M18.3779 20.0902C16.6694 21.3315 14.6118 22 12.5 22C10.3882 22 8.33063 21.3315 6.62215 20.0902M16.8837 3.01206C18.7818 3.93781 20.3381 5.44068 21.3295 7.30528C22.3209 9.16989 22.6966 11.3005 22.4027 13.3917M2.59742 13.3916C2.30352 11.3004 2.6792 9.16979 3.67063 7.30519C4.66205 5.44059 6.21832 3.93771 8.11639 3.01196M11.9343 6.56569L7.06569 11.4343C6.86768 11.6323 6.76868 11.7313 6.73158 11.8455C6.69895 11.9459 6.69895 12.0541 6.73158 12.1545C6.76868 12.2687 6.86768 12.3677 7.06569 12.5657L11.9343 17.4343C12.1323 17.6323 12.2313 17.7313 12.3455 17.7684C12.4459 17.8011 12.5541 17.8011 12.6545 17.7684C12.7687 17.7313 12.8677 17.6323 13.0657 17.4343L17.9343 12.5657C18.1323 12.3677 18.2313 12.2687 18.2684 12.1545C18.3011 12.0541 18.3011 11.9459 18.2684 11.8455C18.2313 11.7313 18.1323 11.6323 17.9343 11.4343L13.0657 6.56569C12.8677 6.36768 12.7687 6.26867 12.6545 6.23158C12.5541 6.19895 12.4459 6.19895 12.3455 6.23158C12.2313 6.26867 12.1323 6.36768 11.9343 6.56569Z" stroke="#949494" stroke-width="2" stroke-linecap="round" stroke-linejoin="round"/>
</svg>
