<svg width="16" height="16" viewBox="0 0 16 16" fill="none" xmlns="http://www.w3.org/2000/svg">
<path d="M11.3333 2L8.00001 4.66667L4.66668 2M4.53334 14H11.4667C12.5868 14 13.1468 14 13.5747 13.782C13.951 13.5903 14.2569 13.2843 14.4487 12.908C14.6667 12.4802 14.6667 11.9201 14.6667 10.8V7.86667C14.6667 6.74656 14.6667 6.18651 14.4487 5.75869C14.2569 5.38236 13.951 5.0764 13.5747 4.88465C13.1468 4.66667 12.5868 4.66667 11.4667 4.66667H4.53334C3.41324 4.66667 2.85319 4.66667 2.42536 4.88465C2.04904 5.0764 1.74308 5.38236 1.55133 5.75869C1.33334 6.18651 1.33334 6.74656 1.33334 7.86667V10.8C1.33334 11.9201 1.33334 12.4802 1.55133 12.908C1.74308 13.2843 2.04904 13.5903 2.42536 13.782C2.85319 14 3.41324 14 4.53334 14Z" stroke="#20013A" stroke-width="2" stroke-linecap="round" stroke-linejoin="round"/>
</svg>
