<svg width="16" height="15" viewBox="0 0 16 15" fill="none" xmlns="http://www.w3.org/2000/svg">
<path fill-rule="evenodd" clip-rule="evenodd" d="M9.44157 8.03726V8.03576C9.35907 8.04176 8.93382 8.06726 7.98507 8.06726C7.22757 8.06726 6.69432 8.04476 6.50682 8.03576V8.03801C3.59082 7.90976 1.41432 7.40201 1.41432 6.79451C1.41432 6.18776 3.59082 5.68001 6.50682 5.54951V7.53251C6.69732 7.54601 7.24332 7.57826 7.99782 7.57826C8.90307 7.57826 9.35682 7.54076 9.44157 7.53326V5.55101C12.3516 5.68076 14.5228 6.18851 14.5228 6.79451C14.5228 7.40201 12.3516 7.90826 9.44157 8.03726ZM9.44157 5.34476V3.57026H13.5021V0.864258H2.44632V3.57026H6.50682V5.34401C3.20682 5.49551 0.725067 6.14951 0.725067 6.93251C0.725067 7.71551 3.20682 8.36876 6.50682 8.52101V14.2075H9.44157V8.51951C12.7363 8.36801 15.2121 7.71476 15.2121 6.93251C15.2121 6.15026 12.7363 5.49701 9.44157 5.34476Z" fill="white"/>
</svg>
