<svg width="36" height="36" viewBox="0 0 36 36" fill="none" xmlns="http://www.w3.org/2000/svg">
<path d="M0 18C0 8.05888 8.05888 0 18 0C27.9411 0 36 8.05888 36 18C36 27.9411 27.9411 36 18 36C8.05888 36 0 27.9411 0 18Z" fill="#E9E6EB"/>
<g clip-path="url(#clip0_110_2638)">
<path d="M23.7508 8.96094H26.8175L20.1175 16.6193L28 27.0384H21.8283L16.995 20.7184L11.4633 27.0384H8.395L15.5617 18.8468L8 8.96177H14.3283L18.6975 14.7384L23.7508 8.96094ZM22.675 25.2034H24.3742L13.405 10.7001H11.5817L22.675 25.2034Z" fill="#454545"/>
</g>
<defs>
<clipPath id="clip0_110_2638">
<rect width="20" height="20" fill="white" transform="translate(8 8)"/>
</clipPath>
</defs>
</svg>
